# xmcd
#
# Track frame offsets:
#	150
#	21594
#	49107
#	81638
#	104134
#	130116
#	145767
#	171163
#	208586
#	222826
#	260631
#
# Disc length: 3724 seconds
#
# Revision: 2
# Processed by: cddbd v1.5.2PL0 Copyright (c) Steve Scherf et al.
# Submitted via: EZCDAudioConverter 2.1.7.1
#
DISCID=ad0e8a0b
DTITLE=V/A - Nigeria 70 1/2
DYEAR=2009
DGENRE=
TTITLE0=Monomono - Tire Loma Da Nigbehin
TTITLE1=Blo - Chant To Mother Earth
TTITLE2=Fela Ransome Kuti and The Africa 70 - Jeun Ko Ku (Chop N' Quench)
TTITLE3=Tunji Oyelana and The Benders - Ifa
TTITLE4=Bala Miller and The Great Music Pirameeds Of Afrika - Ikon Allah
TTITLE5=Segun Bucknor and His Revolution - La La La
TTITLE6=Peter King - Shango
TTITLE7=Tony Allen and His African Messengers - No Discrimination
TTITLE8=Sir Victor Uwaifo and His Melody Maestroes - Akayan Ekassa
TTITLE9=William Onyeabor - Better Change Your Mind
TTITLE10=Bongos Ikwue - Woman Made The Devil
EXTD=
EXTT0=
EXTT1=
EXTT2=
EXTT3=
EXTT4=
EXTT5=
EXTT6=
EXTT7=
EXTT8=
EXTT9=
EXTT10=
PLAYORDER=
